<svg xmlns="http://www.w3.org/2000/svg" width="64" height="64" viewBox="0 0 64 64">
  <g id="Gruppe_1" data-name="Gruppe 1" transform="translate(-1155 -646)">
    <path id="Differenzmenge_1" data-name="Differenzmenge 1" d="M48,64H16A16,16,0,0,1,0,48V16A16,16,0,0,1,16,0H48A16,16,0,0,1,64,16V48A16,16,0,0,1,48,64ZM31.96,9.969a22.019,22.019,0,0,0-8.743,42.223A2,2,0,0,0,26,50.351V47h-.47a8,8,0,0,1-6.861-3.884l-.156-.259A1.773,1.773,0,0,0,17,42a1,1,0,0,1,0-2,4.02,4.02,0,0,1,3.2,1.6A6.027,6.027,0,0,0,25,44h1.084a5.971,5.971,0,0,1,1.674-3.243c.125-.125.255-.244.389-.356A.227.227,0,0,0,28,40a10,10,0,0,1-7.99-16.015,9.69,9.69,0,0,1,.1-4.608l.17-.635a1,1,0,0,1,1.224-.707l.635.17a9.709,9.709,0,0,1,3.8,2.009A10.08,10.08,0,0,1,28,20h8a10.082,10.082,0,0,1,2.064.213,9.71,9.71,0,0,1,3.8-2.009l.635-.17a1,1,0,0,1,1.225.707l.17.635a9.7,9.7,0,0,1,.1,4.608A10,10,0,0,1,36,40a.227.227,0,0,0-.147.4c.133.111.264.23.39.356A5.96,5.96,0,0,1,38,45c0,.03,0,3.015.016,5.351a1.983,1.983,0,0,0,2.76,1.825,22.019,22.019,0,0,0-8.8-42.207H31.96Z" transform="translate(1155 646)" fill="#fff"/>
    <path id="Differenzmenge_2" data-name="Differenzmenge 2" d="M0,47.646H0V16A16,16,0,0,1,16,0H48c.222,0,.443.015.656.029l.264.017a9,9,0,0,1,.026,17.9A21.966,21.966,0,0,0,31.979,9.969H31.96A22.025,22.025,0,0,0,11.237,24.59,30.291,30.291,0,0,0,3.049,34.807,29.694,29.694,0,0,0,0,47.646ZM20.027,19.7v0c.025-.108.052-.216.08-.32l.17-.635a1,1,0,0,1,1.224-.707l.635.17a9.675,9.675,0,0,1,1.4.494,29.9,29.9,0,0,0-3.509,1Z" transform="translate(1155 646)" fill="#fff"/>
    <path id="Differenzmenge_3" data-name="Differenzmenge 3" d="M38.044,54.031a16,16,0,0,1-2.233-31.845,10,10,0,0,1-9.768,7.846.226.226,0,0,0-.146.4c.133.112.264.232.389.356a5.964,5.964,0,0,1,1.758,4.243c0,.03,0,3.017.015,5.351a1.984,1.984,0,0,0,2.761,1.825A22.023,22.023,0,0,0,44.015,20.88,16.005,16.005,0,0,0,54.044,6.031v32a16,16,0,0,1-16,16Z" transform="translate(1164.956 655.969)" fill="#fff"/>
  </g>
</svg>
